<svg width="200" height="200" viewBox="0 0 200 200" fill="none" xmlns="http://www.w3.org/2000/svg">
  <rect width="200" height="200" rx="20" fill="#4F46E5"/>
  <path d="M50 100C50 72.3858 72.3858 50 100 50C127.614 50 150 72.3858 150 100C150 127.614 127.614 150 100 150C72.3858 150 50 127.614 50 100Z" fill="white"/>
  <path d="M100 70C82.3269 70 68 84.3269 68 102C68 119.673 82.3269 134 100 134C117.673 134 132 119.673 132 102C132 84.3269 117.673 70 100 70ZM100 124C85.6406 124 74 112.359 74 98C74 83.6406 85.6406 72 100 72C114.359 72 126 83.6406 126 98C126 112.359 114.359 124 100 124Z" fill="#4F46E5"/>
  <path d="M100 80C88.9543 80 80 88.9543 80 100C80 111.046 88.9543 120 100 120C111.046 120 120 111.046 120 100C120 88.9543 111.046 80 100 80ZM100 114C91.1634 114 84 106.837 84 98C84 89.1634 91.1634 82 100 82C108.837 82 116 89.1634 116 98C116 106.837 108.837 114 100 114Z" fill="#4F46E5"/>
  <circle cx="100" cy="98" r="8" fill="#4F46E5"/>
</svg> 